<?xml version="1.0" encoding="UTF-8" standalone="no"?>
<!-- Created with Inkscape (http://www.inkscape.org/) -->

<svg
   xmlns:dc="http://purl.org/dc/elements/1.1/"
   xmlns:cc="http://creativecommons.org/ns#"
   xmlns:rdf="http://www.w3.org/1999/02/22-rdf-syntax-ns#"
   xmlns:svg="http://www.w3.org/2000/svg"
   xmlns="http://www.w3.org/2000/svg"
   xmlns:sodipodi="http://sodipodi.sourceforge.net/DTD/sodipodi-0.dtd"
   xmlns:inkscape="http://www.inkscape.org/namespaces/inkscape"
   width="40cm"
   height="40cm"
   viewBox="0 0 400 399.99999"
   version="1.1"
   id="svg5825"
   inkscape:version="0.92.1 r15371"
   sodipodi:docname="drawing.svg">
  <defs
     id="defs5819" />
  <sodipodi:namedview
     id="base"
     pagecolor="#ffffff"
     bordercolor="#666666"
     borderopacity="1.0"
     inkscape:pageopacity="0.0"
     inkscape:pageshadow="2"
     inkscape:zoom="0.35"
     inkscape:cx="-100"
     inkscape:cy="560"
     inkscape:document-units="mm"
     inkscape:current-layer="layer1"
     showgrid="false"
     units="cm"
     inkscape:window-width="3840"
     inkscape:window-height="2066"
     inkscape:window-x="-11"
     inkscape:window-y="-11"
     inkscape:window-maximized="1" />
  <metadata
     id="metadata5822">
    <rdf:RDF>
      <cc:Work
         rdf:about="">
        <dc:format>image/svg+xml</dc:format>
        <dc:type
           rdf:resource="http://purl.org/dc/dcmitype/StillImage" />
        <dc:title></dc:title>
      </cc:Work>
    </rdf:RDF>
  </metadata>
  <g
     inkscape:label="Layer 1"
     inkscape:groupmode="layer"
     id="layer1"
     transform="translate(0,102.99998)">
    <g
       transform="matrix(0.26458333,0,0,0.26458333,52.109177,-49.539476)"
       id="g5791">
      <path
         sodipodi:nodetypes="ccccccccc"
         inkscape:connector-curvature="0"
         id="path4392"
         d="M 555.1899,112.08836 V 232.7993 1153.5102 L 787.61178,921.08836 899.51607,1191.5376 1069.2797,1106.6548 955.18599,832.7993 h 320.71481 z"
         style="color:#000000;font-style:normal;font-variant:normal;font-weight:normal;font-stretch:normal;font-size:medium;line-height:normal;font-family:sans-serif;text-indent:0;text-align:start;text-decoration:none;text-decoration-line:none;text-decoration-style:solid;text-decoration-color:#000000;letter-spacing:normal;word-spacing:normal;text-transform:none;writing-mode:lr-tb;direction:ltr;baseline-shift:baseline;text-anchor:start;white-space:normal;clip-rule:nonzero;display:inline;overflow:visible;visibility:visible;opacity:1;isolation:auto;mix-blend-mode:normal;color-interpolation:sRGB;color-interpolation-filters:linearRGB;solid-color:#000000;solid-opacity:1;fill:#000000;fill-opacity:1;fill-rule:nonzero;stroke:none;stroke-width:100;stroke-linecap:square;stroke-linejoin:miter;stroke-miterlimit:4;stroke-dasharray:none;stroke-dashoffset:0;stroke-opacity:1;color-rendering:auto;image-rendering:auto;shape-rendering:auto;text-rendering:auto;enable-background:accumulate" />
      <path
         transform="translate(555.1899,182.7993)"
         sodipodi:nodetypes="cccccccc"
         inkscape:connector-curvature="0"
         id="rect56"
         d="M 50,50 V 850 L 250,650 369.99609,940.00195 449.98828,900.00586 325,600 h 275 z"
         style="fill:#6600ff;fill-opacity:1" />
      <path
         inkscape:connector-curvature="0"
         id="path5238"
         d="m 475.1899,162.52192 c -1.1593,-0.007 -2.2186,-0.0592 -3.3984,-0.0586 -47.2661,0.0263 -74.3468,5.80331 -125.4336,26.75195 -16.7522,6.8694 -34.1105,12.48829 -38.5723,12.48829 -8.0841,0 -9.4938,-1.39082 -83.5859,-82.44922 C 123.8644,9.48551 32.23,-83.83746 24.7837,-83.83746 c -7.1079,0 -9.4391,28.80986 -7.1778,88.67578 1.9995,52.93599 5.9718,86.85528 17.6699,150.86133 7.224,39.52581 23.548,112.28545 30.7813,137.20117 2.6566,9.15088 3.9903,19.28066 2.9648,22.51172 -1.0255,3.23109 -9.8438,15.01812 -19.5957,26.19336 -16.0056,18.34161 -45.3949,55.55261 -63.6543,80.59375 -42.302,58.01361 -95.6108,147.03557 -90.8808,151.76563 1.1635,1.16341 13.2152,2.11523 26.7812,2.11523 30.3165,0 34.1258,3.89431 16.8867,17.25781 -14.8553,11.51561 -96.5449,91.00566 -96.5449,93.94531 0,1.12599 23.9143,2.99486 53.1426,4.15235 59.4859,2.35569 72.821,4.2423 119.1387,16.86914 39.5952,10.79421 111.0007,46.00003 148.6777,73.30273 71.2463,51.6287 141.0063,129.62547 192.1035,214.78907 8.3543,13.92418 16.9562,28.20098 19.1153,31.72658 4.9177,8.0301 41.5367,82.6962 52.5468,107.1426 v 0 l 8.2168,18.2422 h 40.2344 z"
         style="fill:#1c1714;stroke-width:3.17268443" />
      <path
         inkscape:connector-curvature="0"
         id="path5242"
         d="m 408.37595,788.0872 c 0,0 31.34072,-194.2996 -161.38641,-212.79992 0,0 -25.45144,177.23184 161.38641,212.79992 z"
         style="fill:#6600ff;fill-opacity:1;stroke:none;stroke-width:1.21029592px;stroke-linecap:butt;stroke-linejoin:miter;stroke-opacity:1" />
    </g>
  </g>
</svg>
