<?xml version="1.0" encoding="UTF-8" standalone="no"?>
<svg
   xmlns:dc="http://purl.org/dc/elements/1.1/"
   xmlns:cc="http://creativecommons.org/ns#"
   xmlns:rdf="http://www.w3.org/1999/02/22-rdf-syntax-ns#"
   xmlns:svg="http://www.w3.org/2000/svg"
   xmlns="http://www.w3.org/2000/svg"
   id="svg5825"
   version="1.1"
   viewBox="0 0 400 399.99999"
   height="40cm"
   width="40cm">
  <defs
     id="defs5819" />
  <metadata
     id="metadata5822">
    <rdf:RDF>
      <cc:Work
         rdf:about="">
        <dc:format>image/svg+xml</dc:format>
        <dc:type
           rdf:resource="http://purl.org/dc/dcmitype/StillImage" />
        <dc:title></dc:title>
      </cc:Work>
    </rdf:RDF>
  </metadata>
  <g
     transform="translate(0,102.99998)"
     id="layer1">
    <path
       id="path4392"
       d="M 199.00317,-19.882764 V 12.055338 255.66009 l 61.49495,-61.49494 29.60801,71.55636 44.91663,-22.45857 -30.18729,-72.4576 h 84.85579 z"
       style="color:#000000;font-style:normal;font-variant:normal;font-weight:normal;font-stretch:normal;font-size:medium;line-height:normal;font-family:sans-serif;text-indent:0;text-align:start;text-decoration:none;text-decoration-line:none;text-decoration-style:solid;text-decoration-color:#000000;letter-spacing:normal;word-spacing:normal;text-transform:none;writing-mode:lr-tb;direction:ltr;baseline-shift:baseline;text-anchor:start;white-space:normal;clip-rule:nonzero;display:inline;overflow:visible;visibility:visible;opacity:1;isolation:auto;mix-blend-mode:normal;color-interpolation:sRGB;color-interpolation-filters:linearRGB;solid-color:#000000;solid-opacity:1;fill:#000000;fill-opacity:1;fill-rule:nonzero;stroke:none;stroke-width:26.45833206;stroke-linecap:square;stroke-linejoin:miter;stroke-miterlimit:4;stroke-dasharray:none;stroke-dashoffset:0;stroke-opacity:1;color-rendering:auto;image-rendering:auto;shape-rendering:auto;text-rendering:auto;enable-background:accumulate" />
    <path
       id="rect56"
       d="M 212.23234,12.055338 V 223.722 l 52.91666,-52.91666 31.74897,76.72968 21.1646,-10.5823 -33.06982,-79.37655 h 72.76042 z"
       style="fill:#ffffff;fill-opacity:1;stroke-width:0.26458332" />
    <path
       id="path5238"
       d="m 177.8365,-6.5388852 c -0.30673,-0.00185 -0.587,-0.015663 -0.89916,-0.015505 -12.50582,0.00696 -19.67092,1.5354591 -33.18764,7.07812002 -4.43235,1.81752878 -9.02507,3.30419338 -10.20558,3.30419338 -2.13892,0 -2.51191,-0.3679878 -22.11544,-21.8146892 C 84.881632,-47.029768 60.636698,-71.72147 58.666531,-71.72147 c -1.880632,0 -2.497429,7.622608 -1.899126,23.462133 0.529034,14.00598 1.580038,22.980459 4.675161,39.9153929 1.91135,10.4578704 6.230408,29.7088581 8.144218,36.3011421 0.702893,2.421171 1.055767,5.101342 0.784437,5.956226 -0.27133,0.854893 -2.604505,3.973544 -5.184695,6.930327 -4.234815,4.852884 -12.010734,14.698294 -16.841867,21.323762 -11.192404,15.349434 -25.297024,38.903157 -24.045545,40.154657 0.307843,0.30782 3.496522,0.55965 7.085859,0.55965 8.021241,0 9.029118,1.03037 4.46794,4.56613 -3.930465,3.04684 -25.544172,24.07858 -25.544172,24.85637 0,0.29791 6.327326,0.79239 14.060647,1.09864 15.738977,0.62327 19.267222,1.12244 31.522114,4.46329 10.476229,2.85597 29.368934,12.17084 39.33764,19.39468 18.850588,13.6601 37.307918,34.29674 50.827388,56.82961 2.2104,3.68411 4.48632,7.46151 5.05759,8.39432 1.30114,2.12463 10.98991,21.88004 13.903,28.34815 v 0 l 2.17403,4.82658 h 10.64535 z"
       style="fill:#1c1714;stroke-width:0.83943939" />
    <path
       id="path5242"
       d="m 160.15865,158.97526 c 0,0 8.29223,-51.40844 -42.70016,-56.30331 0,0 -6.73402,46.89259 42.70016,56.30331 z"
       style="fill:#ffffff;fill-opacity:1;stroke:none;stroke-width:0.32022414px;stroke-linecap:butt;stroke-linejoin:miter;stroke-opacity:1" />
  </g>
</svg>
